# xmcd
#
# Track frame offsets: 
#        150
#        19266
#        44832
#        64631
#        84362
#        103121
#        123687
#        140250
#        163981
#        186379
#        205708
#        223448
#        247748
#        268825
#
# Disc length: 3813 seconds
#
# Revision: 0
# Processed by: cddbd v1.5.2PL0 Copyright (c) Steve Scherf et al.
# Submitted via: ExactAudioCopy v0.95b4
#
DISCID=d90ee30e
DTITLE=Juliane Köhler - Das Eselchen Grisella
DYEAR=2006
DGENRE=Other
TTITLE0=Das Eselchen Grisella - 12
TTITLE1=Das Eselchen Grisella - 13
TTITLE2=Das Eselchen Grisella - 14
TTITLE3=Das Eselchen Grisella - 15
TTITLE4=Das Eselchen Grisella - 16
TTITLE5=Das Eselchen Grisella - 17
TTITLE6=Das Eselchen Grisella - 18
TTITLE7=Das Eselchen Grisella - 19
TTITLE8=Das Eselchen Grisella - 20
TTITLE9=Das Eselchen Grisella - 21
TTITLE10=Das Eselchen Grisella - 22
TTITLE11=Das Eselchen Grisella - 23
TTITLE12=Das Eselchen Grisella - 24
TTITLE13=Das Eselchen Grisella - 25
EXTD=
EXTT0=
EXTT1=
EXTT2=
EXTT3=
EXTT4=
EXTT5=
EXTT6=
EXTT7=
EXTT8=
EXTT9=
EXTT10=
EXTT11=
EXTT12=
EXTT13=
PLAYORDER=
